<svg width="22" height="20" viewBox="0 0 22 20" fill="none" xmlns="http://www.w3.org/2000/svg">
<path d="M9.04177 17.0031H14.9578C14.8396 17.702 14.4776 18.3366 13.9362 18.7942C13.3947 19.2518 12.7087 19.5028 11.9998 19.5028C11.2909 19.5028 10.6048 19.2518 10.0634 18.7942C9.52191 18.3366 9.15998 17.702 9.04177 17.0031ZM11.9998 0.00305176C13.9889 0.00305176 15.8965 0.793228 17.3031 2.19975C18.7096 3.60627 19.4998 5.51393 19.4998 7.50305V11.5031L20.9178 14.6631C20.9822 14.8076 21.0096 14.9659 20.9973 15.1237C20.985 15.2815 20.9336 15.4337 20.8475 15.5665C20.7615 15.6993 20.6436 15.8086 20.5047 15.8843C20.3657 15.96 20.21 15.9998 20.0518 16.0001H3.95177C3.7933 16 3.63736 15.9604 3.49814 15.8847C3.35892 15.809 3.24084 15.6996 3.15467 15.5667C3.06849 15.4337 3.01696 15.2812 3.00475 15.1232C2.99254 14.9652 3.02005 14.8067 3.08477 14.6621L4.49977 11.5021V7.49005L4.50477 7.24005C4.57318 5.2979 5.39277 3.45813 6.79087 2.10834C8.18897 0.758554 10.0564 0.00314301 11.9998 0.00305176ZM22.9998 6.25005C23.1898 6.25011 23.3727 6.3223 23.5116 6.45202C23.6504 6.58175 23.7348 6.75935 23.7478 6.94893C23.7607 7.13851 23.7013 7.32594 23.5813 7.47335C23.4614 7.62076 23.29 7.71715 23.1018 7.74305L22.9998 7.75005H20.9998C20.8097 7.74999 20.6268 7.67781 20.488 7.54808C20.3491 7.41835 20.2647 7.24075 20.2517 7.05117C20.2388 6.86159 20.2983 6.67416 20.4182 6.52675C20.5381 6.37935 20.7095 6.28295 20.8978 6.25705L20.9998 6.25005H22.9998ZM2.99977 6.25005C3.18979 6.25011 3.37271 6.3223 3.51156 6.45202C3.65041 6.58175 3.73485 6.75935 3.7478 6.94893C3.76075 7.13851 3.70126 7.32594 3.58134 7.47335C3.46142 7.62076 3.29002 7.71715 3.10177 7.74305L2.99977 7.75005H0.999771C0.809748 7.74999 0.62683 7.67781 0.48798 7.54808C0.349129 7.41835 0.264697 7.24075 0.251745 7.05117C0.238793 6.86159 0.298287 6.67416 0.418204 6.52675C0.538121 6.37935 0.709521 6.28295 0.897771 6.25705L0.999771 6.25005H2.99977ZM22.5998 0.550052C22.7077 0.693793 22.7603 0.871495 22.7482 1.05081C22.7361 1.23012 22.66 1.39913 22.5338 1.52705L22.4498 1.60005L20.4498 3.10005C20.2984 3.21416 20.1094 3.26669 19.9208 3.24709C19.7322 3.22749 19.5581 3.1372 19.4334 2.99439C19.3087 2.85158 19.2427 2.66684 19.2487 2.47735C19.2547 2.28786 19.3323 2.10768 19.4658 1.97305L19.5498 1.90005L21.5498 0.400052C21.7089 0.280704 21.9089 0.229459 22.1058 0.25759C22.3027 0.28572 22.4804 0.390922 22.5998 0.550052ZM2.44977 0.400052L4.44977 1.90005C4.52856 1.95915 4.59495 2.03318 4.64513 2.11793C4.69531 2.20268 4.7283 2.29648 4.74223 2.39399C4.75616 2.49149 4.75075 2.59078 4.72631 2.68619C4.70186 2.7816 4.65887 2.87126 4.59977 2.95005C4.54068 3.02884 4.46664 3.09523 4.38189 3.14541C4.29714 3.19559 4.20334 3.22859 4.10584 3.24251C4.00834 3.25644 3.90905 3.25103 3.81364 3.22659C3.71823 3.20214 3.62856 3.15915 3.54977 3.10005L1.54977 1.60005C1.47098 1.54096 1.4046 1.46692 1.35442 1.38217C1.30423 1.29742 1.27124 1.20362 1.25731 1.10612C1.24338 1.00862 1.24879 0.909326 1.27324 0.813916C1.29768 0.718506 1.34068 0.628845 1.39977 0.550052C1.45887 0.471259 1.5329 0.404877 1.61765 0.354696C1.7024 0.304515 1.7962 0.271518 1.89371 0.25759C1.99121 0.243661 2.0905 0.249073 2.18591 0.273516C2.28132 0.29796 2.37098 0.340957 2.44977 0.400052Z" fill="white"/>
</svg>
