<svg width="51" height="45" viewBox="0 0 51 45" fill="none" xmlns="http://www.w3.org/2000/svg">
<path d="M28.8788 0.00872535C16.1538 -0.341275 5.72884 9.88373 5.72884 22.5087H1.25384C0.128836 22.5087 -0.421164 23.8587 0.378836 24.6337L7.35384 31.6337C7.85384 32.1337 8.62884 32.1337 9.12884 31.6337L16.1038 24.6337C16.2766 24.4575 16.3933 24.2341 16.4393 23.9916C16.4853 23.7491 16.4584 23.4985 16.3622 23.2712C16.266 23.044 16.1046 22.8503 15.8985 22.7146C15.6923 22.5789 15.4506 22.5073 15.2038 22.5087H10.7288C10.7288 12.7587 18.6788 4.88373 28.4788 5.00873C37.7788 5.13373 45.6038 12.9587 45.7288 22.2587C45.8538 32.0337 37.9788 40.0087 28.2288 40.0087C24.2038 40.0087 20.4788 38.6337 17.5288 36.3087C17.05 35.9315 16.4492 35.7435 15.8408 35.7803C15.2323 35.8172 14.6586 36.0764 14.2288 36.5087C13.1788 37.5587 13.2538 39.3337 14.4288 40.2337C18.3566 43.3399 23.2213 45.0231 28.2288 45.0087C40.8538 45.0087 51.0788 34.5837 50.7288 21.8587C50.4038 10.1337 40.6038 0.333725 28.8788 0.00872535ZM27.6038 12.5087C26.5788 12.5087 25.7288 13.3587 25.7288 14.3837V23.5837C25.7288 24.4587 26.2038 25.2837 26.9538 25.7337L34.7538 30.3587C35.6538 30.8837 36.8038 30.5837 37.3288 29.7087C37.8538 28.8087 37.5538 27.6587 36.6788 27.1337L29.4788 22.8587V14.3587C29.4788 13.3587 28.6288 12.5087 27.6038 12.5087Z" fill="#124BD0"/>
</svg>
