<svg width="46" height="34" viewBox="0 0 46 34" fill="none" xmlns="http://www.w3.org/2000/svg">
<path d="M31.3333 0.333252C31.8858 0.333252 32.4157 0.552746 32.8064 0.943447C33.1971 1.33415 33.4166 1.86405 33.4166 2.41659V11.1666L44.277 3.56242C44.4332 3.45295 44.6164 3.38846 44.8067 3.37596C44.997 3.36347 45.1871 3.40346 45.3562 3.49157C45.5253 3.57969 45.667 3.71254 45.7658 3.87565C45.8647 4.03877 45.9168 4.22588 45.9166 4.41659V29.5833C45.9168 29.774 45.8647 29.9611 45.7658 30.1242C45.667 30.2873 45.5253 30.4201 45.3562 30.5083C45.1871 30.5964 44.997 30.6364 44.8067 30.6239C44.6164 30.6114 44.4332 30.5469 44.277 30.4374L33.4166 22.8333V31.5833C33.4166 32.1358 33.1971 32.6657 32.8064 33.0564C32.4157 33.4471 31.8858 33.6666 31.3333 33.6666H2.16659C1.61405 33.6666 1.08415 33.4471 0.693446 33.0564C0.302745 32.6657 0.083252 32.1358 0.083252 31.5833V2.41659C0.083252 1.86405 0.302745 1.33415 0.693446 0.943447C1.08415 0.552746 1.61405 0.333252 2.16659 0.333252H31.3333ZM13.4166 10.3937C13.2245 10.3936 13.0383 10.46 12.8894 10.5814C12.7406 10.7029 12.6383 10.8721 12.5999 11.0603L12.5833 11.2249V22.7708C12.5832 22.9057 12.616 23.0386 12.6787 23.1581C12.7414 23.2776 12.8322 23.3801 12.9433 23.4567C13.0544 23.5334 13.1824 23.5819 13.3164 23.5981C13.4503 23.6144 13.5863 23.5978 13.7124 23.5499L13.8645 23.4749L22.9374 17.702C23.0433 17.6341 23.1325 17.5431 23.1983 17.4358C23.2641 17.3286 23.3049 17.2078 23.3175 17.0827C23.3301 16.9575 23.3143 16.831 23.2712 16.7128C23.2281 16.5946 23.1589 16.4876 23.0687 16.3999L22.9374 16.2958L13.8645 10.5208C13.7301 10.4374 13.5747 10.392 13.4166 10.3937Z" fill="#124BD0"/>
</svg>
