<svg width="24" height="12" viewBox="0 0 24 12" fill="none" xmlns="http://www.w3.org/2000/svg">
<path d="M21.0939 1.36206e-07C20.7587 0.00010814 20.4282 0.0783559 20.1285 0.228531C19.8288 0.378706 19.5683 0.596672 19.3676 0.865124C19.1669 1.13358 19.0316 1.44512 18.9723 1.77503C18.913 2.10493 18.9315 2.44411 19.0262 2.76563L15.6808 6.11062C15.2396 5.96365 14.7626 5.96365 14.3214 6.11062L11.8412 3.63047C11.9228 3.31201 11.9306 2.9791 11.8638 2.6572C11.797 2.3353 11.6575 2.03293 11.456 1.77321C11.2544 1.51349 10.9961 1.3033 10.7009 1.1587C10.4056 1.0141 10.0812 0.938927 9.75248 0.938927C9.42373 0.938927 9.09933 1.0141 8.80408 1.1587C8.50883 1.3033 8.25056 1.51349 8.04901 1.77321C7.84745 2.03293 7.70796 2.3353 7.64118 2.6572C7.5744 2.9791 7.58212 3.31201 7.66373 3.63047L3.51576 7.77563C3.05525 7.63931 2.56243 7.66036 2.11522 7.83545C1.668 8.01054 1.2919 8.32968 1.04635 8.74242C0.800794 9.15517 0.699804 9.63799 0.759339 10.1145C0.818874 10.5911 1.03554 11.0342 1.37508 11.3739C1.71463 11.7136 2.15769 11.9304 2.63423 11.99C3.11078 12.0497 3.59362 11.9489 4.00645 11.7035C4.41928 11.4581 4.73854 11.0821 4.91377 10.6349C5.089 10.1877 5.11021 9.69493 4.97404 9.23438L9.06951 5.13937C9.5107 5.28645 9.98769 5.28645 10.4289 5.13937L12.9095 7.62C12.8279 7.93846 12.8202 8.27137 12.887 8.59327C12.9537 8.91517 13.0932 9.21754 13.2948 9.47726C13.4963 9.73698 13.7546 9.94717 14.0499 10.0918C14.3451 10.2364 14.6695 10.3115 14.9983 10.3115C15.327 10.3115 15.6514 10.2364 15.9467 10.0918C16.2419 9.94717 16.5002 9.73698 16.7017 9.47726C16.9033 9.21754 17.0428 8.91517 17.1096 8.59327C17.1763 8.27137 17.1686 7.93846 17.087 7.62L20.4845 4.22437C20.7811 4.31188 21.0931 4.33456 21.3992 4.29088C21.7054 4.2472 21.9985 4.13818 22.2588 3.97122C22.5191 3.80426 22.7405 3.58326 22.9078 3.32322C23.0752 3.06318 23.1847 2.77018 23.2288 2.46411C23.273 2.15803 23.2508 1.84604 23.1637 1.5493C23.0767 1.25256 22.9268 0.978017 22.7243 0.744295C22.5218 0.510574 22.2714 0.323143 21.9901 0.194721C21.7088 0.0662993 21.4031 -0.000109774 21.0939 1.36206e-07Z" fill="white"/>
</svg>
