<svg width="182" height="182" viewBox="0 0 182 182" fill="none" xmlns="http://www.w3.org/2000/svg">
<circle cx="91" cy="91" r="83" transform="matrix(-1 0 0 1 182 0)" stroke="white" stroke-width="16"/>
<path d="M13.6467 91.7628C73.6514 60.2936 141.441 78.1277 168.158 91.6762C168.981 92.0934 169.368 93.0151 169.141 93.9092L162.272 120.983C161.962 122.202 160.575 122.815 159.424 122.307C117.194 103.672 116.204 140.593 120.705 162.061C120.888 162.934 120.487 163.82 119.707 164.251L91.0985 180.05C90.4668 180.398 89.6961 180.38 89.0819 180.001L63.5927 164.283C62.8574 163.829 62.5071 162.917 62.6974 162.074C73.7393 113.161 38.8508 114.022 17.8176 122.26C16.5409 122.76 15.1165 121.916 14.9942 120.55L12.5899 93.7023C12.5184 92.9039 12.9369 92.1351 13.6467 91.7628Z" fill="white"/>
<path d="M57.4524 102.065C57.4524 123.032 88.5409 140.003 89.8648 140.704C90.2137 140.892 90.6038 140.99 91 140.99C91.3963 140.99 91.7863 140.892 92.1352 140.704C93.4592 140.003 124.548 123.032 124.548 102.065C124.542 97.141 122.584 92.4206 119.102 88.9391C115.621 85.4576 110.9 83.4992 105.977 83.4937C99.7913 83.4937 94.3757 86.1535 91 90.6495C87.6243 86.1535 82.2088 83.4937 76.0234 83.4937C71.0998 83.4992 66.3794 85.4576 62.8979 88.9391C59.4163 92.4206 57.458 97.141 57.4524 102.065Z" fill="#FF70D7"/>
</svg>
