<svg width="20" height="22" viewBox="0 0 20 22" fill="none" xmlns="http://www.w3.org/2000/svg">
<path d="M12.3083 0.980805C11.554 0.812357 10.7841 0.723016 10.0112 0.714233C9.21921 0.722805 8.44864 0.812805 7.69349 0.980805C7.53246 1.01683 7.38673 1.1023 7.27668 1.22525C7.16663 1.34821 7.09779 1.5025 7.07978 1.66652L6.90064 3.27538C6.87496 3.5023 6.79651 3.72007 6.67158 3.91124C6.54665 4.10242 6.37871 4.26169 6.18119 4.37632C5.98366 4.49096 5.76205 4.55776 5.53408 4.57139C5.30611 4.58501 5.07812 4.54509 4.86835 4.4548L3.39406 3.80595C3.24442 3.74007 3.078 3.72233 2.91783 3.75519C2.75767 3.78806 2.61168 3.86989 2.50006 3.98938C1.43382 5.13028 0.63995 6.49795 0.178064 7.98966C0.129403 8.1467 0.13082 8.315 0.182119 8.4712C0.233417 8.6274 0.332055 8.76376 0.46435 8.86138L1.77321 9.82566C1.95731 9.96115 2.10698 10.138 2.21013 10.342C2.31328 10.546 2.36702 10.7714 2.36702 10.9999C2.36702 11.2285 2.31328 11.4539 2.21013 11.6579C2.10698 11.8619 1.95731 12.0387 1.77321 12.1742L0.46435 13.1411C0.332226 13.2386 0.233698 13.3749 0.182407 13.5309C0.131115 13.6869 0.129598 13.855 0.178064 14.0119C0.638996 15.505 1.43229 16.8741 2.49835 18.0165C2.60986 18.1361 2.7558 18.2181 2.91598 18.2512C3.07615 18.2842 3.24262 18.2666 3.39235 18.2008L4.87349 17.5502C5.08204 17.4592 5.30907 17.4184 5.53628 17.4312C5.76348 17.444 5.9845 17.51 6.18149 17.6239C6.58092 17.8554 6.84749 18.2625 6.89978 18.7219L7.07806 20.3308C7.09597 20.4926 7.16336 20.645 7.27105 20.7671C7.37873 20.8892 7.52147 20.9751 7.67978 21.0131C9.20498 21.3767 10.7943 21.3767 12.3195 21.0131C12.4778 20.9751 12.6205 20.8892 12.7282 20.7671C12.8359 20.645 12.9033 20.4926 12.9212 20.3308L13.0995 18.7194C13.1237 18.4923 13.2011 18.2742 13.3255 18.0827C13.4499 17.8911 13.6177 17.7317 13.8153 17.6173C14.0129 17.5028 14.2348 17.4367 14.4628 17.4241C14.6908 17.4116 14.9185 17.453 15.1275 17.5451L16.6078 18.1957C16.7575 18.2614 16.924 18.279 17.0842 18.246C17.2443 18.213 17.3903 18.131 17.5018 18.0114C18.5673 16.8702 19.3605 15.5026 19.8221 14.0111C19.8707 13.854 19.8693 13.6858 19.818 13.5296C19.7667 13.3734 19.6681 13.237 19.5358 13.1394L18.2286 12.1742C18.0445 12.0388 17.8948 11.862 17.7915 11.6581C17.6883 11.4541 17.6345 11.2287 17.6344 11.0002C17.6343 10.7716 17.688 10.5462 17.791 10.3422C17.8941 10.1381 18.0437 9.96121 18.2278 9.82566L19.5349 8.85966C19.6669 8.76199 19.7652 8.62573 19.8164 8.46971C19.8675 8.31369 19.8689 8.14564 19.8203 7.98881C19.3588 6.49715 18.5652 5.12948 17.4992 3.98852C17.3876 3.86904 17.2416 3.7872 17.0814 3.75434C16.9213 3.72148 16.7548 3.73921 16.6052 3.80509L15.1309 4.45395C14.9475 4.53561 14.7489 4.57767 14.5481 4.57738C14.189 4.57672 13.8428 4.44358 13.5758 4.20348C13.3088 3.96339 13.1398 3.63321 13.1012 3.27623L12.9212 1.66566C12.9033 1.50198 12.8346 1.34799 12.7249 1.2252C12.6152 1.10242 12.469 1.01697 12.3083 0.980805ZM10.0001 14.4285C9.09075 14.4285 8.21868 14.0673 7.5757 13.4243C6.93272 12.7813 6.57149 11.9093 6.57149 10.9999C6.57149 10.0906 6.93272 9.21856 7.5757 8.57558C8.21868 7.9326 9.09075 7.57138 10.0001 7.57138C10.9094 7.57138 11.7814 7.9326 12.4244 8.57558C13.0674 9.21856 13.4286 10.0906 13.4286 10.9999C13.4286 11.9093 13.0674 12.7813 12.4244 13.4243C11.7814 14.0673 10.9094 14.4285 10.0001 14.4285Z" fill="white"/>
</svg>
